<svg xmlns="http://www.w3.org/2000/svg" viewBox="0 0 256 256" width="256" height="256">
  <defs>
    <linearGradient id="grad" x1="0%" y1="0%" x2="100%" y2="100%">
      <stop offset="0%" style="stop-color:#818cf8;stop-opacity:1" />
      <stop offset="100%" style="stop-color:#6366f1;stop-opacity:1" />
    </linearGradient>
  </defs>
  <!-- Rounded background -->
  <rect x="16" y="16" width="224" height="224" rx="48" ry="48" fill="#0f0f1a"/>
  <!-- Bounding box / annotation mark (dashed corner brackets) -->
  <!-- Top-left corner -->
  <path d="M56 88 L56 64 Q56 56 64 56 L88 56" fill="none" stroke="#6366f1" stroke-width="6" stroke-linecap="round"/>
  <!-- Top-right corner -->
  <path d="M168 56 L192 56 Q200 56 200 64 L200 88" fill="none" stroke="#6366f1" stroke-width="6" stroke-linecap="round"/>
  <!-- Bottom-left corner -->
  <path d="M56 168 L56 192 Q56 200 64 200 L88 200" fill="none" stroke="#6366f1" stroke-width="6" stroke-linecap="round"/>
  <!-- Bottom-right corner -->
  <path d="M168 200 L192 200 Q200 200 200 192 L200 168" fill="none" stroke="#6366f1" stroke-width="6" stroke-linecap="round"/>
  <!-- Stylized "L" letterform -->
  <path d="M88 80 L88 168 L152 168" fill="none" stroke="url(#grad)" stroke-width="14" stroke-linecap="round" stroke-linejoin="round"/>
  <!-- Small accent dot (annotation point) -->
  <circle cx="172" cy="100" r="8" fill="#6366f1" opacity="0.7"/>
</svg>
